<?xml version="1.0" encoding="utf-8"?>
<!-- Generator: Adobe Illustrator 25.0.0, SVG Export Plug-In . SVG Version: 6.00 Build 0)  -->
<svg version="1.1" xmlns="http://www.w3.org/2000/svg" xmlns:xlink="http://www.w3.org/1999/xlink" x="0px" y="0px"
	 viewBox="0 0 25 25" style="enable-background:new 0 0 25 25;" xml:space="preserve">
<style type="text/css">
	.st0{fill:none;stroke:#F3CC30;stroke-miterlimit:10;}
</style>
<g id="BG">
</g>
<g id="Object">
	<path class="st0" d="M12.8,3l2.8,5.9c0,0.1,0.1,0.2,0.2,0.2l6.2,0.9c0.3,0,0.4,0.4,0.2,0.6l-4.5,4.6c-0.1,0.1-0.1,0.2-0.1,0.3
		l1.1,6.4c0,0.3-0.2,0.5-0.5,0.3l-5.5-3c-0.1-0.1-0.2-0.1-0.3,0l-5.5,3c-0.2,0.1-0.5-0.1-0.5-0.3l1.1-6.4c0-0.1,0-0.2-0.1-0.3
		l-4.5-4.6C2.7,10.3,2.8,10,3.1,10L9.2,9c0.1,0,0.2-0.1,0.2-0.2L12.2,3C12.3,2.7,12.7,2.7,12.8,3z"/>
</g>
</svg>
