<?xml version="1.0" encoding="utf-8"?>
<!-- Generator: Adobe Illustrator 25.0.0, SVG Export Plug-In . SVG Version: 6.00 Build 0)  -->
<svg version="1.1" id="Layer_1" xmlns="http://www.w3.org/2000/svg" xmlns:xlink="http://www.w3.org/1999/xlink" x="0px" y="0px"
	 viewBox="0 0 18 18" style="enable-background:new 0 0 18 18;" xml:space="preserve">
<style type="text/css">
	.st0{fill:none;}
	.st1{fill-rule:evenodd;clip-rule:evenodd;fill:#FFCC33;}
</style>
<g>
	<rect class="st0" width="18" height="18"/>
</g>
<g>
	<path class="st1" d="M12,6.8V3h0.8c0.4,0,0.8-0.3,0.8-0.8l0,0c0-0.4-0.3-0.8-0.8-0.8H5.2c-0.4,0-0.8,0.3-0.8,0.8l0,0
		C4.5,2.7,4.8,3,5.2,3H6v3.8C6,8,5,9,3.8,9l0,0v1.5h4.5v5.2L9,16.5l0.8-0.8v-5.2h4.5V9l0,0C13,9,12,8,12,6.8z"/>
</g>
</svg>
