<?xml version="1.0" encoding="utf-8"?>
<!-- Generator: Adobe Illustrator 25.0.0, SVG Export Plug-In . SVG Version: 6.00 Build 0)  -->
<svg version="1.1" id="Layer_1" xmlns="http://www.w3.org/2000/svg" xmlns:xlink="http://www.w3.org/1999/xlink" x="0px" y="0px"
	 viewBox="0 0 18 18" style="enable-background:new 0 0 18 18;" xml:space="preserve">
<style type="text/css">
	.st0{fill:none;}
	.st1{fill:none;stroke:#FFCC33;stroke-miterlimit:10;}
</style>
<g>
	<rect class="st0" width="18" height="18"/>
</g>
<g>
	<path class="st1" d="M11.9,6.9V3.3h0.7c0.4,0,0.7-0.3,0.7-0.7l0,0c0-0.4-0.3-0.7-0.7-0.7H5.4C5,1.9,4.7,2.2,4.7,2.6l0,0
		C4.7,3,5,3.3,5.4,3.3h0.7v3.6C6.1,8,5.2,9,4,9l0,0v1.4h4.3v5L9,16.1l0.7-0.7v-5H14V9l0,0C12.8,9,11.9,8,11.9,6.9z"/>
</g>
</svg>
