<svg xmlns="http://www.w3.org/2000/svg" viewBox="0 0 325 25" width="325" height="25"><g><defs><clipPath id="clip_frame0_fill_path"><path d="M12.8 3l2.8 5.9c0 .1.1.2.2.2l6.2.9c.3 0 .4.4.2.6l-4.5 4.6c-.1.1-.1.2-.1.3l1.1 6.4c0 .3-.2.5-.5.3l-5.5-3c-.1-.1-.2-.1-.3 0l-5.5 3c-.2.1-.5-.1-.5-.3l1.1-6.4c0-.1 0-.2-.1-.3l-4.5-4.6c-.2-.3-.1-.6.2-.6l6.1-1c.1 0 .2-.1.2-.2L12.2 3c.1-.3.5-.3.6 0z"/></clipPath></defs><path d="M12.8 3l2.8 5.9c0 .1.1.2.2.2l6.2.9c.3 0 .4.4.2.6l-4.5 4.6c-.1.1-.1.2-.1.3l1.1 6.4c0 .3-.2.5-.5.3l-5.5-3c-.1-.1-.2-.1-.3 0l-5.5 3c-.2.1-.5-.1-.5-.3l1.1-6.4c0-.1 0-.2-.1-.3l-4.5-4.6c-.2-.3-.1-.6.2-.6l6.1-1c.1 0 .2-.1.2-.2L12.2 3c.1-.3.5-.3.6 0z" fill="none" stroke="#f3cc30" stroke-miterlimit="10"/><path clip-path="url(#clip_frame0_fill_path)" d="M2.2 22.3h20.7v.5H2.2z" fill="#f3cc30"/></g><g transform="translate(25)"><defs><clipPath id="clip_frame1_fill_path"><path d="M12.8 3l2.8 5.9c0 .1.1.2.2.2l6.2.9c.3 0 .4.4.2.6l-4.5 4.6c-.1.1-.1.2-.1.3l1.1 6.4c0 .3-.2.5-.5.3l-5.5-3c-.1-.1-.2-.1-.3 0l-5.5 3c-.2.1-.5-.1-.5-.3l1.1-6.4c0-.1 0-.2-.1-.3l-4.5-4.6c-.2-.3-.1-.6.2-.6l6.1-1c.1 0 .2-.1.2-.2L12.2 3c.1-.3.5-.3.6 0z"/></clipPath></defs><path d="M12.8 3l2.8 5.9c0 .1.1.2.2.2l6.2.9c.3 0 .4.4.2.6l-4.5 4.6c-.1.1-.1.2-.1.3l1.1 6.4c0 .3-.2.5-.5.3l-5.5-3c-.1-.1-.2-.1-.3 0l-5.5 3c-.2.1-.5-.1-.5-.3l1.1-6.4c0-.1 0-.2-.1-.3l-4.5-4.6c-.2-.3-.1-.6.2-.6l6.1-1c.1 0 .2-.1.2-.2L12.2 3c.1-.3.5-.3.6 0z" fill="none" stroke="#f3cc30" stroke-miterlimit="10"/><path clip-path="url(#clip_frame1_fill_path)" d="M2.2 21.898h20.7v.902H2.2z" fill="#f3cc30"/></g><g transform="translate(50)"><defs><clipPath id="clip_frame2_fill_path"><path d="M12.8 3l2.8 5.9c0 .1.1.2.2.2l6.2.9c.3 0 .4.4.2.6l-4.5 4.6c-.1.1-.1.2-.1.3l1.1 6.4c0 .3-.2.5-.5.3l-5.5-3c-.1-.1-.2-.1-.3 0l-5.5 3c-.2.1-.5-.1-.5-.3l1.1-6.4c0-.1 0-.2-.1-.3l-4.5-4.6c-.2-.3-.1-.6.2-.6l6.1-1c.1 0 .2-.1.2-.2L12.2 3c.1-.3.5-.3.6 0z"/></clipPath></defs><path d="M12.8 3l2.8 5.9c0 .1.1.2.2.2l6.2.9c.3 0 .4.4.2.6l-4.5 4.6c-.1.1-.1.2-.1.3l1.1 6.4c0 .3-.2.5-.5.3l-5.5-3c-.1-.1-.2-.1-.3 0l-5.5 3c-.2.1-.5-.1-.5-.3l1.1-6.4c0-.1 0-.2-.1-.3l-4.5-4.6c-.2-.3-.1-.6.2-.6l6.1-1c.1 0 .2-.1.2-.2L12.2 3c.1-.3.5-.3.6 0z" fill="none" stroke="#f3cc30" stroke-miterlimit="10"/><path clip-path="url(#clip_frame2_fill_path)" d="M2.2 20.285h20.7V22.8H2.2z" fill="#f3cc30"/></g><g transform="translate(75)"><defs><clipPath id="clip_frame3_fill_path"><path d="M12.8 3l2.8 5.9c0 .1.1.2.2.2l6.2.9c.3 0 .4.4.2.6l-4.5 4.6c-.1.1-.1.2-.1.3l1.1 6.4c0 .3-.2.5-.5.3l-5.5-3c-.1-.1-.2-.1-.3 0l-5.5 3c-.2.1-.5-.1-.5-.3l1.1-6.4c0-.1 0-.2-.1-.3l-4.5-4.6c-.2-.3-.1-.6.2-.6l6.1-1c.1 0 .2-.1.2-.2L12.2 3c.1-.3.5-.3.6 0z"/></clipPath></defs><path d="M12.8 3l2.8 5.9c0 .1.1.2.2.2l6.2.9c.3 0 .4.4.2.6l-4.5 4.6c-.1.1-.1.2-.1.3l1.1 6.4c0 .3-.2.5-.5.3l-5.5-3c-.1-.1-.2-.1-.3 0l-5.5 3c-.2.1-.5-.1-.5-.3l1.1-6.4c0-.1 0-.2-.1-.3l-4.5-4.6c-.2-.3-.1-.6.2-.6l6.1-1c.1 0 .2-.1.2-.2L12.2 3c.1-.3.5-.3.6 0z" fill="none" stroke="#f3cc30" stroke-miterlimit="10"/><path clip-path="url(#clip_frame3_fill_path)" d="M2.2 16.683h20.7V22.8H2.2z" fill="#f3cc30"/></g><g transform="translate(100)"><defs><clipPath id="clip_frame4_fill_path"><path d="M12.8 3l2.8 5.9c0 .1.1.2.2.2l6.2.9c.3 0 .4.4.2.6l-4.5 4.6c-.1.1-.1.2-.1.3l1.1 6.4c0 .3-.2.5-.5.3l-5.5-3c-.1-.1-.2-.1-.3 0l-5.5 3c-.2.1-.5-.1-.5-.3l1.1-6.4c0-.1 0-.2-.1-.3l-4.5-4.6c-.2-.3-.1-.6.2-.6l6.1-1c.1 0 .2-.1.2-.2L12.2 3c.1-.3.5-.3.6 0z"/></clipPath></defs><path d="M12.8 3l2.8 5.9c0 .1.1.2.2.2l6.2.9c.3 0 .4.4.2.6l-4.5 4.6c-.1.1-.1.2-.1.3l1.1 6.4c0 .3-.2.5-.5.3l-5.5-3c-.1-.1-.2-.1-.3 0l-5.5 3c-.2.1-.5-.1-.5-.3l1.1-6.4c0-.1 0-.2-.1-.3l-4.5-4.6c-.2-.3-.1-.6.2-.6l6.1-1c.1 0 .2-.1.2-.2L12.2 3c.1-.3.5-.3.6 0z" fill="none" stroke="#f3cc30" stroke-miterlimit="10"/><path clip-path="url(#clip_frame4_fill_path)" d="M2.2 11.922h20.7V22.8H2.2z" fill="#f3cc30"/></g><g transform="translate(125)"><defs><clipPath id="clip_frame5_fill_path"><path d="M12.8 3l2.8 5.9c0 .1.1.2.2.2l6.2.9c.3 0 .4.4.2.6l-4.5 4.6c-.1.1-.1.2-.1.3l1.1 6.4c0 .3-.2.5-.5.3l-5.5-3c-.1-.1-.2-.1-.3 0l-5.5 3c-.2.1-.5-.1-.5-.3l1.1-6.4c0-.1 0-.2-.1-.3l-4.5-4.6c-.2-.3-.1-.6.2-.6l6.1-1c.1 0 .2-.1.2-.2L12.2 3c.1-.3.5-.3.6 0z"/></clipPath></defs><path d="M12.8 3l2.8 5.9c0 .1.1.2.2.2l6.2.9c.3 0 .4.4.2.6l-4.5 4.6c-.1.1-.1.2-.1.3l1.1 6.4c0 .3-.2.5-.5.3l-5.5-3c-.1-.1-.2-.1-.3 0l-5.5 3c-.2.1-.5-.1-.5-.3l1.1-6.4c0-.1 0-.2-.1-.3l-4.5-4.6c-.2-.3-.1-.6.2-.6l6.1-1c.1 0 .2-.1.2-.2L12.2 3c.1-.3.5-.3.6 0z" fill="none" stroke="#f3cc30" stroke-miterlimit="10"/><path clip-path="url(#clip_frame5_fill_path)" d="M2.2 8.256h20.7V22.8H2.2z" fill="#f3cc30"/></g><g transform="translate(150)"><defs><clipPath id="clip_frame6_fill_path"><path d="M12.8 3l2.8 5.9c0 .1.1.2.2.2l6.2.9c.3 0 .4.4.2.6l-4.5 4.6c-.1.1-.1.2-.1.3l1.1 6.4c0 .3-.2.5-.5.3l-5.5-3c-.1-.1-.2-.1-.3 0l-5.5 3c-.2.1-.5-.1-.5-.3l1.1-6.4c0-.1 0-.2-.1-.3l-4.5-4.6c-.2-.3-.1-.6.2-.6l6.1-1c.1 0 .2-.1.2-.2L12.2 3c.1-.3.5-.3.6 0z"/></clipPath></defs><path d="M12.8 3l2.8 5.9c0 .1.1.2.2.2l6.2.9c.3 0 .4.4.2.6l-4.5 4.6c-.1.1-.1.2-.1.3l1.1 6.4c0 .3-.2.5-.5.3l-5.5-3c-.1-.1-.2-.1-.3 0l-5.5 3c-.2.1-.5-.1-.5-.3l1.1-6.4c0-.1 0-.2-.1-.3l-4.5-4.6c-.2-.3-.1-.6.2-.6l6.1-1c.1 0 .2-.1.2-.2L12.2 3c.1-.3.5-.3.6 0z" fill="none" stroke="#f3cc30" stroke-miterlimit="10"/><path clip-path="url(#clip_frame6_fill_path)" d="M2.2 5.848h20.7V22.8H2.2z" fill="#f3cc30"/><path d="M.683717 8.015768l.433013.25-.1.173205-.433013-.25zm13.250189 7.65l.433012.25-.1.173205-.433012-.25zM9.275764 28.333906l.433013.25-.1.173205-.433013-.25zm-17.233906-9.95l.433013.25-.1.173205-.433013-.25zm6.810254 8.204294l.433013.25-.1.173205-.433013-.25z" fill="#f3cc30" fill-opacity=".002593"/></g><g transform="translate(175)"><defs><clipPath id="clip_frame7_fill_path"><path d="M12.8 3l2.8 5.9c0 .1.1.2.2.2l6.2.9c.3 0 .4.4.2.6l-4.5 4.6c-.1.1-.1.2-.1.3l1.1 6.4c0 .3-.2.5-.5.3l-5.5-3c-.1-.1-.2-.1-.3 0l-5.5 3c-.2.1-.5-.1-.5-.3l1.1-6.4c0-.1 0-.2-.1-.3l-4.5-4.6c-.2-.3-.1-.6.2-.6l6.1-1c.1 0 .2-.1.2-.2L12.2 3c.1-.3.5-.3.6 0z"/></clipPath></defs><path d="M12.8 3l2.8 5.9c0 .1.1.2.2.2l6.2.9c.3 0 .4.4.2.6l-4.5 4.6c-.1.1-.1.2-.1.3l1.1 6.4c0 .3-.2.5-.5.3l-5.5-3c-.1-.1-.2-.1-.3 0l-5.5 3c-.2.1-.5-.1-.5-.3l1.1-6.4c0-.1 0-.2-.1-.3l-4.5-4.6c-.2-.3-.1-.6.2-.6l6.1-1c.1 0 .2-.1.2-.2L12.2 3c.1-.3.5-.3.6 0z" fill="none" stroke="#f3cc30" stroke-miterlimit="10"/><path clip-path="url(#clip_frame7_fill_path)" d="M2.2 4.271h20.7V22.8H2.2z" fill="#f3cc30"/><path d="M1.194265 7.65384l.450733.187343.035042.508858-.450733-.187344zm13.613533 7.064176l.392985.159736.265293.04596-.39209-.15929zm-3.777731 12.685016l.449392.187794.035938.509303-.450288-.18824zm-17.904209-8.623223l.392535.158395.264848.046857-.39209-.159291zm7.441454 7.67757l.447676.22268-.162111.325909-.447676-.22268z" fill="#f3cc30" fill-opacity=".639048"/></g><g transform="translate(200)"><defs><clipPath id="clip_frame8_fill_path"><path d="M12.8 3l2.8 5.9c0 .1.1.2.2.2l6.2.9c.3 0 .4.4.2.6l-4.5 4.6c-.1.1-.1.2-.1.3l1.1 6.4c0 .3-.2.5-.5.3l-5.5-3c-.1-.1-.2-.1-.3 0l-5.5 3c-.2.1-.5-.1-.5-.3l1.1-6.4c0-.1 0-.2-.1-.3l-4.5-4.6c-.2-.3-.1-.6.2-.6l6.1-1c.1 0 .2-.1.2-.2L12.2 3c.1-.3.5-.3.6 0z"/></clipPath></defs><path d="M12.8 3l2.8 5.9c0 .1.1.2.2.2l6.2.9c.3 0 .4.4.2.6l-4.5 4.6c-.1.1-.1.2-.1.3l1.1 6.4c0 .3-.2.5-.5.3l-5.5-3c-.1-.1-.2-.1-.3 0l-5.5 3c-.2.1-.5-.1-.5-.3l1.1-6.4c0-.1 0-.2-.1-.3l-4.5-4.6c-.2-.3-.1-.6.2-.6l6.1-1c.1 0 .2-.1.2-.2L12.2 3c.1-.3.5-.3.6 0z" fill="none" stroke="#f3cc30" stroke-miterlimit="10"/><path clip-path="url(#clip_frame8_fill_path)" d="M2.2 3.243h20.7V22.8H2.2z" fill="#f3cc30"/><path d="M2.685674 5.68476l.453087-.0939 1.129905 1.918188-.452865.092925zm14.77913 4.95127l.080591-.178578 1.808083-1.060588-.081344.177382zm-.559749 11.935865l.452865-.092926 1.131103 1.917434-.452866.092925zM-2.66332 19.655619l.080368-.177603 1.807108-1.06081-.080147.176629zm9.588711 5.124007l.487561.110835-.259797 1.142843-.487561-.110835z" fill="#f3cc30" fill-opacity=".972945"/></g><g transform="translate(225)"><defs><clipPath id="clip_frame9_fill_path"><path d="M12.8 3l2.8 5.9c0 .1.1.2.2.2l6.2.9c.3 0 .4.4.2.6l-4.5 4.6c-.1.1-.1.2-.1.3l1.1 6.4c0 .3-.2.5-.5.3l-5.5-3c-.1-.1-.2-.1-.3 0l-5.5 3c-.2.1-.5-.1-.5-.3l1.1-6.4c0-.1 0-.2-.1-.3l-4.5-4.6c-.2-.3-.1-.6.2-.6l6.1-1c.1 0 .2-.1.2-.2L12.2 3c.1-.3.5-.3.6 0z"/></clipPath></defs><path d="M12.8 3l2.8 5.9c0 .1.1.2.2.2l6.2.9c.3 0 .4.4.2.6l-4.5 4.6c-.1.1-.1.2-.1.3l1.1 6.4c0 .3-.2.5-.5.3l-5.5-3c-.1-.1-.2-.1-.3 0l-5.5 3c-.2.1-.5-.1-.5-.3l1.1-6.4c0-.1 0-.2-.1-.3l-4.5-4.6c-.2-.3-.1-.6.2-.6l6.1-1c.1 0 .2-.1.2-.2L12.2 3c.1-.3.5-.3.6 0z" fill="none" stroke="#f3cc30" stroke-miterlimit="10"/><path clip-path="url(#clip_frame9_fill_path)" d="M2.2 2.6h20.7v20.2H2.2z" fill="#f3cc30"/><path d="M3.153166 4.278038l.397948-.267986L5.74093 6.602423l-.398946.26791zm15.391504 3.62485l-.195264-.314064 2.55799-2.16039.195264.314065zm1.137746 11.023216l.398946-.267909 2.188819 2.592294-.39795.267987zM-.07122 19.73074l-.195187-.315062L2.2925 17.256363l.194345.31299zm10.54036 3.231984l.498498.038721-.13297 1.711844-.498498-.038722z" fill="#f3cc30"/></g><g transform="translate(250)"><defs><clipPath id="clip_frame10_fill_path"><path d="M12.8 3l2.8 5.9c0 .1.1.2.2.2l6.2.9c.3 0 .4.4.2.6l-4.5 4.6c-.1.1-.1.2-.1.3l1.1 6.4c0 .3-.2.5-.5.3l-5.5-3c-.1-.1-.2-.1-.3 0l-5.5 3c-.2.1-.5-.1-.5-.3l1.1-6.4c0-.1 0-.2-.1-.3l-4.5-4.6c-.2-.3-.1-.6.2-.6l6.1-1c.1 0 .2-.1.2-.2L12.2 3c.1-.3.5-.3.6 0z"/></clipPath></defs><path d="M12.8 3l2.8 5.9c0 .1.1.2.2.2l6.2.9c.3 0 .4.4.2.6l-4.5 4.6c-.1.1-.1.2-.1.3l1.1 6.4c0 .3-.2.5-.5.3l-5.5-3c-.1-.1-.2-.1-.3 0l-5.5 3c-.2.1-.5-.1-.5-.3l1.1-6.4c0-.1 0-.2-.1-.3l-4.5-4.6c-.2-.3-.1-.6.2-.6l6.1-1c.1 0 .2-.1.2-.2L12.2 3c.1-.3.5-.3.6 0z" fill="none" stroke="#f3cc30" stroke-miterlimit="10"/><path clip-path="url(#clip_frame10_fill_path)" d="M2.2 2.242h20.7V22.8H2.2z" fill="#f3cc30"/><path d="M3.245693 3.71954l.365415-.333095 2.667509 2.77935-.365416.333095zm15.61647 3.062217l-.313462-.346038 2.771198-2.659662.31348.345038zm1.743308 10.598154l.365416-.333096 2.667508 2.77935-.365396.332095zM.963311 19.666934l-.314461-.346056 2.772198-2.659644.31348.345038zm10.821635 2.43071l.499909.00953-.036806 1.930649-.49991-.00953z" fill="#f3cc30"/></g><g transform="translate(275)"><defs><clipPath id="clip_frame11_fill_path"><path d="M12.8 3l2.8 5.9c0 .1.1.2.2.2l6.2.9c.3 0 .4.4.2.6l-4.5 4.6c-.1.1-.1.2-.1.3l1.1 6.4c0 .3-.2.5-.5.3l-5.5-3c-.1-.1-.2-.1-.3 0l-5.5 3c-.2.1-.5-.1-.5-.3l1.1-6.4c0-.1 0-.2-.1-.3l-4.5-4.6c-.2-.3-.1-.6.2-.6l6.1-1c.1 0 .2-.1.2-.2L12.2 3c.1-.3.5-.3.6 0z"/></clipPath></defs><path d="M12.8 3l2.8 5.9c0 .1.1.2.2.2l6.2.9c.3 0 .4.4.2.6l-4.5 4.6c-.1.1-.1.2-.1.3l1.1 6.4c0 .3-.2.5-.5.3l-5.5-3c-.1-.1-.2-.1-.3 0l-5.5 3c-.2.1-.5-.1-.5-.3l1.1-6.4c0-.1 0-.2-.1-.3l-4.5-4.6c-.2-.3-.1-.6.2-.6l6.1-1c.1 0 .2-.1.2-.2L12.2 3c.1-.3.5-.3.6 0z" fill="none" stroke="#f3cc30" stroke-miterlimit="10"/><path clip-path="url(#clip_frame11_fill_path)" d="M2.2 2.105h20.7V22.8H2.2z" fill="#f3cc30"/><path d="M3.264724 3.546096l.353228-.353773 2.823185 2.827813-.354226.352772zM18.94888 6.426165l-.351773-.353226 2.826812-2.822186.351774.352225zm1.924287 10.459237l.354227-.353773 2.822185 2.827812-.353226.352774zm-19.58477 2.75043l-.352773-.353227 2.827812-2.822186.351774.352226zm10.897607 2.173995l.5.00032-.001283 1.998-.5-.00032z" fill="#f3cc30"/></g><g transform="translate(300)"><defs><clipPath id="clip_frame12_fill_path"><path d="M12.8 3l2.8 5.9c0 .1.1.2.2.2l6.2.9c.3 0 .4.4.2.6l-4.5 4.6c-.1.1-.1.2-.1.3l1.1 6.4c0 .3-.2.5-.5.3l-5.5-3c-.1-.1-.2-.1-.3 0l-5.5 3c-.2.1-.5-.1-.5-.3l1.1-6.4c0-.1 0-.2-.1-.3l-4.5-4.6c-.2-.3-.1-.6.2-.6l6.1-1c.1 0 .2-.1.2-.2L12.2 3c.1-.3.5-.3.6 0z"/></clipPath></defs><path d="M12.8 3l2.8 5.9c0 .1.1.2.2.2l6.2.9c.3 0 .4.4.2.6l-4.5 4.6c-.1.1-.1.2-.1.3l1.1 6.4c0 .3-.2.5-.5.3l-5.5-3c-.1-.1-.2-.1-.3 0l-5.5 3c-.2.1-.5-.1-.5-.3l1.1-6.4c0-.1 0-.2-.1-.3l-4.5-4.6c-.2-.3-.1-.6.2-.6l6.1-1c.1 0 .2-.1.2-.2L12.2 3c.1-.3.5-.3.6 0z" fill="none" stroke="#f3cc30" stroke-miterlimit="10"/><path clip-path="url(#clip_frame12_fill_path)" d="M2.2 2.1h20.7v20.7H2.2z" fill="#f3cc30"/><path d="M3.265 3.54l.353-.354 2.829 2.829-.354.353zm15.687 2.874l-.353-.354 2.828-2.828.353.353zm1.93 10.454l.354-.354 2.828 2.829-.353.353zM1.3 19.635l-.354-.354 2.829-2.828.353.353zM12.2 21.8h.5v2h-.5z" fill="#ffff00"/></g></svg>